<?xml version="1.0" standalone="no"?>
<!DOCTYPE svg PUBLIC "-//W3C//DTD SVG 20010904//EN"
 "http://www.w3.org/TR/2001/REC-SVG-20010904/DTD/svg10.dtd">
<svg version="1.0" xmlns="http://www.w3.org/2000/svg"
 width="1024.000000pt" height="1024.000000pt" viewBox="0 0 1024.000000 1024.000000"
 preserveAspectRatio="xMidYMid meet">

<g transform="translate(0.000000,1024.000000) scale(0.100000,-0.100000)"
fill="#000000" stroke="none">
<path d="M0 10196 c0 -22 1 -37 3 -35 2 2 15 21 31 42 l27 37 -30 -2 c-29 -2
-31 -5 -31 -42z"/>
<path d="M124 10231 c-28 -5 -83 -49 -104 -84 -18 -29 -18 -198 -20 -5039 l-1
-5010 49 -49 49 -49 5072 0 5071 0 0 40 0 41 -31 -36 c-17 -19 -36 -35 -41
-35 -6 0 5 17 25 39 l34 38 7 234 c3 129 5 2388 2 5020 l-4 4786 -26 40 c-15
22 -37 45 -49 52 -18 10 -1130 13 -5018 14 -2748 1 -5004 0 -5015 -2z m4821
-199 c-3 -3 -11 0 -18 7 -9 10 -8 11 6 5 10 -3 15 -9 12 -12z m822 -34 c-3 -8
-6 -5 -6 6 -1 11 2 17 5 13 3 -3 4 -12 1 -19z m-354 -1153 c382 -45 777 -174
1107 -362 205 -117 254 -149 404 -269 491 -394 856 -948 1010 -1534 83 -315
100 -479 93 -867 -5 -295 -21 -413 -88 -668 -66 -251 -242 -650 -365 -827 -30
-43 -54 -81 -54 -85 0 -15 -52 -73 -66 -73 -7 0 -14 -5 -14 -12 0 -6 -3 -8 -7
-5 -3 4 2 16 12 27 10 11 14 20 9 20 -5 -1 -28 -26 -52 -58 -23 -31 -59 -75
-78 -96 -19 -22 -38 -52 -41 -68 -5 -27 -6 -27 -67 -21 -33 3 -78 8 -99 12
l-39 6 67 80 c86 103 219 282 272 365 182 289 336 704 397 1065 38 226 44 565
15 798 -67 535 -284 1010 -679 1487 -94 113 -208 221 -363 343 -186 148 -268
195 -632 367 -123 58 -399 138 -730 212 -43 9 -144 13 -350 12 -287 0 -292 0
-445 -32 -381 -80 -626 -160 -875 -287 -179 -92 -253 -138 -394 -243 -259
-193 -445 -396 -658 -717 -160 -241 -296 -560 -361 -845 -146 -636 -78 -1269
197 -1845 155 -324 355 -603 597 -834 239 -228 479 -384 788 -515 170 -73 500
-175 646 -200 339 -60 800 -53 1115 15 71 15 353 102 440 135 11 4 19 -4 30
-30 19 -44 19 -71 2 -88 -22 -22 -17 -49 7 -43 52 14 -18 -17 -121 -54 -143
-51 -368 -106 -513 -126 -153 -21 -524 -35 -680 -25 -233 16 -535 79 -782 166
-241 84 -596 265 -765 391 -86 64 -285 228 -339 279 -148 141 -363 428 -493
660 -205 367 -346 839 -381 1279 -17 212 7 549 56 795 33 164 105 394 165 531
86 197 245 465 388 654 58 77 242 283 318 356 227 220 599 452 944 590 212 85
535 167 739 188 147 15 572 13 713 -4z m2428 -288 c47 -25 93 -83 103 -130 4
-16 3 -26 -2 -23 -11 6 -95 -15 -103 -26 -3 -5 -36 -4 -74 1 -37 6 -81 7 -96
4 -17 -3 -29 -1 -29 5 0 5 -13 15 -30 22 -16 7 -30 16 -30 20 0 10 -52 0 -69
-13 -15 -13 -43 -19 -38 -9 2 4 11 23 20 42 37 82 123 129 233 130 55 0 81 -5
115 -23z m-5295 -141 c35 -35 42 -64 25 -109 -21 -55 -129 -87 -177 -52 -12 8
-23 12 -26 10 -3 -3 -5 1 -6 8 -1 6 -4 27 -8 44 -15 78 30 133 108 133 43 0
54 -4 84 -34z m2842 -6 c276 -46 449 -99 651 -199 221 -110 355 -206 537 -386
377 -374 572 -740 656 -1230 29 -170 31 -474 5 -640 -36 -233 -113 -488 -199
-659 -82 -164 -229 -376 -342 -495 -139 -146 -361 -343 -415 -370 -31 -15 -74
-39 -96 -53 -160 -101 -336 -176 -530 -226 -412 -107 -756 -110 -1157 -12 -90
22 -210 58 -267 80 -133 52 -313 148 -305 162 4 7 2 8 -5 4 -17 -11 -200 113
-311 209 -133 116 -243 232 -234 246 4 8 3 9 -4 5 -12 -7 -105 104 -165 196
-221 343 -327 669 -357 1090 -13 196 4 413 50 604 32 137 115 374 164 472 109
216 315 489 478 634 480 426 957 607 1558 593 102 -3 212 -12 288 -25z m-1956
-498 c-177 -179 -257 -275 -355 -430 -186 -295 -288 -573 -349 -957 -19 -120
-16 -465 5 -599 57 -358 161 -647 329 -911 80 -125 230 -319 273 -353 l25 -20
-233 -7 c-127 -3 -268 -5 -312 -3 l-80 3 -32 65 c-223 449 -326 936 -294 1385
39 530 206 983 524 1420 59 81 183 229 221 264 22 21 26 22 32 7 9 -24 16 -21
69 29 36 34 53 44 69 40 15 -5 17 -4 8 3 -12 8 -12 13 0 31 7 12 18 19 25 17
15 -6 24 19 11 32 -6 6 -1 16 17 28 15 11 36 28 48 39 24 23 139 83 149 78 4
-2 -64 -74 -150 -161z m3305 -4 c15 -7 36 -21 47 -32 14 -14 20 -16 26 -5 10
15 12 14 127 -89 139 -124 392 -484 504 -717 302 -627 350 -1314 138 -1967
l-51 -158 -86 0 c-47 0 -82 -3 -79 -7 4 -3 38 -6 77 -5 55 1 70 -2 70 -13 0
-8 -4 -15 -8 -15 -4 0 -14 -21 -21 -47 -18 -63 -67 -173 -88 -195 -15 -17 -41
-18 -332 -18 l-317 0 69 73 c37 39 74 71 82 69 8 -2 15 4 15 13 0 10 -5 13
-12 9 -9 -5 -9 -3 1 9 7 9 17 15 21 12 4 -3 14 3 21 12 10 12 10 14 2 9 -22
-12 -14 7 17 44 29 34 30 34 36 13 7 -26 44 -32 44 -8 0 8 5 15 10 15 6 0 10
7 10 15 0 8 -5 15 -11 15 -6 0 -8 10 -5 23 3 12 3 16 0 9 -3 -6 -9 -10 -14 -7
-5 3 -11 -4 -15 -15 -3 -11 -11 -20 -16 -20 -12 0 0 22 58 112 100 157 199
385 252 583 72 269 75 292 76 620 l0 300 -33 154 c-91 417 -260 745 -566 1096
-112 129 -119 144 -49 113z m-3501 -83 c-9 -9 -16 -13 -16 -8 0 12 22 34 28
28 2 -2 -3 -11 -12 -20z m-1234 -3342 c23 -20 23 -65 1 -91 -17 -19 -33 -20
-262 -25 l-244 -5 -23 23 c-28 28 -30 42 -9 73 25 34 66 40 299 41 191 1 222
-1 238 -16z m5274 -31 c-13 -26 -32 -58 -43 -71 l-19 -23 -341 -3 c-187 -1
-345 -5 -351 -9 -6 -3 -20 6 -31 20 -20 25 -20 28 -5 46 21 22 36 24 28 3 -10
-25 88 -21 111 5 10 11 21 17 25 15 4 -3 19 4 31 16 13 11 18 18 12 14 -7 -3
-13 -1 -13 4 0 8 75 11 228 12 190 1 284 6 380 17 8 1 4 -14 -12 -46z m1374
18 c26 -26 26 -72 -1 -96 -19 -17 -37 -18 -232 -16 -117 2 -227 5 -245 9 -35
6 -62 35 -57 61 2 9 4 23 4 30 2 25 50 31 279 31 219 1 233 0 252 -19z m-5205
-15 c22 -9 53 -28 68 -41 17 -14 41 -24 61 -24 17 0 37 -5 42 -10 6 -6 20 -12
32 -15 12 -2 30 -9 39 -14 13 -8 -93 -10 -369 -9 -440 2 -396 -7 -453 92 l-27
49 283 -5 c239 -5 290 -8 324 -23z m2965 -230 c65 -73 119 -153 120 -178 1
-24 -202 -207 -229 -207 -3 0 -12 9 -19 21 -8 12 -9 18 -3 15 23 -15 -1 20
-27 38 l-27 20 19 -22 c11 -12 17 -24 15 -27 -3 -2 -50 41 -105 97 -54 55 -81
87 -59 70 22 -17 56 -39 76 -50 l37 -20 21 22 c30 32 28 51 -3 31 -23 -15 -24
-15 -19 4 3 14 -9 34 -42 70 -29 31 -45 56 -42 65 7 17 185 136 202 135 6 0
44 -38 85 -84z m270 -12 c30 -4 137 -8 237 -8 119 0 179 -3 174 -10 -57 -80
-117 -155 -124 -155 -5 0 -36 16 -67 35 -39 24 -88 42 -147 55 -90 19 -111 33
-145 95 -9 17 -9 18 3 8 8 -6 39 -15 69 -20z m1518 -26 c6 -7 12 -46 14 -87
l3 -75 83 -5 c91 -5 104 -14 100 -65 -4 -40 -36 -55 -120 -55 l-67 0 -3 -82
-3 -83 -49 0 c-48 0 -50 1 -59 35 -5 19 -7 54 -4 77 5 50 1 53 -92 53 -74 0
-91 10 -91 50 0 42 29 60 109 67 l71 6 0 76 c0 47 5 82 12 89 16 16 83 15 96
-1z m-6070 -19 c15 -8 22 -20 22 -39 0 -15 5 -29 11 -31 8 -3 6 -10 -5 -21
-16 -15 -48 -17 -321 -17 l-304 0 -20 26 c-26 33 -26 36 -2 65 18 23 26 24
178 29 204 7 412 1 441 -12z m1510 12 c314 -11 387 -22 472 -72 19 -11 53 -26
75 -33 36 -11 22 -13 -145 -20 -103 -4 -343 -3 -535 1 l-349 9 -45 55 -44 55
29 6 c46 10 222 10 542 -1z m4971 -15 c39 -20 46 -44 23 -75 -18 -23 -25 -25
-105 -25 -95 0 -119 12 -132 66 -6 23 -2 28 22 37 43 16 160 14 192 -3z
m-6395 -171 c11 -11 16 -34 16 -78 l0 -63 67 1 c65 1 68 0 82 -28 9 -20 11
-37 5 -55 -9 -24 -14 -26 -82 -29 l-72 -3 0 -44 c0 -24 -4 -55 -10 -69 -8 -23
-15 -26 -54 -26 -25 0 -48 5 -51 11 -4 6 -9 37 -12 70 l-6 59 -66 0 c-75 0
-91 10 -91 55 0 52 12 60 87 59 39 0 71 4 75 10 4 6 8 41 8 79 l0 67 44 0 c27
0 51 -6 60 -16z m4576 -11 c36 -25 288 -261 405 -379 55 -56 230 -224 388
-374 315 -298 373 -359 429 -451 91 -149 74 -323 -44 -474 -42 -55 -68 -72
-88 -60 -5 3 -10 0 -10 -7 0 -9 -3 -9 -10 2 -8 12 -10 11 -10 -7 0 -15 -12
-27 -43 -42 -78 -38 -206 -22 -333 39 -64 31 -49 16 -489 485 -72 77 -149 160
-170 185 -22 25 -75 82 -118 128 -45 48 -75 87 -71 94 4 6 3 8 -4 4 -6 -3 -19
4 -29 16 -10 13 -28 28 -38 35 -11 6 -19 16 -17 22 1 6 -2 10 -7 9 -15 -5
-143 121 -135 133 4 8 3 9 -5 5 -7 -4 -23 4 -39 21 -15 15 -51 49 -79 75 -29
25 -53 50 -53 56 0 5 37 45 83 88 45 44 108 110 140 147 53 61 218 210 277
250 31 21 39 21 70 0z m489 -80 c-6 -10 -21 -26 -33 -35 -18 -13 -23 -14 -23
-2 0 8 6 14 12 14 7 0 20 9 30 20 22 25 29 26 14 3z m-2714 -39 c256 -13 435
-15 800 -10 259 3 513 9 565 12 l96 7 46 -39 c26 -22 47 -45 47 -52 1 -7 5
-11 10 -8 5 3 11 -3 14 -15 l6 -20 -1316 6 -1316 6 -46 34 c-25 18 -62 50 -81
71 l-35 37 440 -7 c242 -3 589 -13 770 -22z m-2651 -7 c15 -11 17 -20 9 -58
l-9 -44 -174 -8 c-95 -5 -184 -6 -197 -2 -14 3 -30 20 -40 40 -16 34 -16 36 7
60 23 25 24 25 205 25 133 0 186 -3 199 -13z m5867 -58 l-3 -51 -32 6 c-17 4
-40 15 -50 26 -17 16 -18 23 -8 45 14 31 49 46 77 33 17 -8 19 -17 16 -59z
m843 50 c31 -24 33 -52 6 -79 -21 -21 -82 -26 -174 -14 -46 7 -46 7 -46 45 0
54 26 69 116 69 57 0 77 -4 98 -21z m-3297 -253 c479 -1 703 -4 703 -11 0 -6
9 -28 20 -49 10 -22 17 -42 15 -46 -7 -11 -764 -18 -1224 -11 -232 4 -487 4
-565 1 -190 -9 -251 -1 -343 47 -40 21 -82 42 -93 48 -60 30 0 34 435 27 193
-3 666 -5 1052 -6z m-3162 -50 c44 1 163 4 265 7 102 2 238 1 303 -2 103 -5
121 -9 133 -26 21 -29 14 -68 -16 -82 -19 -9 -192 -13 -658 -15 l-634 -3 -19
24 c-36 44 -16 93 41 104 14 2 133 2 265 -2 132 -3 276 -5 320 -5z m6384 -10
c26 -23 28 -72 4 -84 -22 -11 -748 -23 -818 -14 -49 7 -50 7 -53 45 -2 26 2
45 14 58 16 18 35 19 424 16 385 -2 409 -3 429 -21z m-3961 -213 c-10 -2 -26
-2 -35 0 -10 3 -2 5 17 5 19 0 27 -2 18 -5z m-1458 -103 c14 -14 19 -30 16
-52 -3 -33 -4 -33 -72 -42 -110 -14 -1394 -12 -1421 2 -38 21 -45 46 -22 76
26 33 2 32 822 34 644 2 657 2 677 -18z m5084 -1 c-5 -8 6 -9 37 -4 39 7 42 6
30 -8 -7 -9 -11 -24 -8 -34 4 -14 5 -13 6 5 1 30 17 28 23 -3 3 -14 1 -25 -4
-25 -5 0 -7 -4 -3 -9 10 -17 -7 -19 -165 -26 -85 -4 -166 -8 -179 -9 -14 -2
-32 3 -40 11 -9 7 -25 19 -36 28 -19 14 -19 16 -2 29 9 7 17 18 17 24 0 6 21
11 48 11 26 0 88 4 137 9 138 13 147 13 139 1z m-5667 -265 c65 -22 108 -57
132 -108 64 -131 -33 -299 -181 -314 -67 -6 -147 33 -188 93 -29 43 -51 118
-44 153 1 9 5 29 9 44 7 34 58 94 96 114 26 13 87 31 116 33 7 1 34 -6 60 -15z
m1140 -31 c45 -3 81 -9 80 -12 0 -3 7 -21 16 -38 10 -18 14 -33 10 -33 -5 0
-2 -4 6 -9 27 -17 -68 -22 -485 -24 -446 -2 -444 -2 -444 53 0 34 25 57 70 63
59 7 659 7 747 0z m484 -336 c12 -16 14 -28 8 -50 -5 -17 -11 -32 -14 -35 -3
-4 -182 -7 -398 -9 -216 -1 -488 -5 -605 -8 l-212 -6 -25 25 c-29 29 -32 66
-7 89 24 22 161 25 766 19 461 -4 470 -5 487 -25z m2053 -23 c23 -24 26 -25
26 -8 1 17 2 18 13 3 7 -9 21 -19 32 -22 18 -4 18 -5 -2 -6 -45 -2 -34 -21 14
-22 36 0 43 -2 27 -9 -33 -13 -186 -9 -209 7 -17 11 -17 13 -2 13 11 0 17 8
17 21 0 18 5 21 35 17 19 -2 35 0 35 4 0 4 -7 8 -15 8 -8 0 -15 5 -15 10 0 17
16 11 44 -16z"/>
<path d="M7535 4310 c-3 -5 -1 -10 4 -10 6 0 11 5 11 10 0 6 -2 10 -4 10 -3 0
-8 -4 -11 -10z"/>
<path d="M2697 4155 c10 -13 22 -25 27 -25 5 0 -1 11 -14 25 -30 32 -36 32
-13 0z"/>
<path d="M3115 3711 c43 -46 177 -152 184 -145 2 2 2 5 0 7 -2 2 -53 43 -114
92 -73 59 -97 74 -70 46z"/>
<path d="M3343 3526 c33 -31 197 -129 204 -122 3 2 -10 12 -29 22 -18 9 -64
38 -103 64 -89 59 -107 68 -72 36z"/>
<path d="M3895 3219 c45 -25 196 -82 201 -76 3 3 -198 86 -230 95 -6 2 7 -7
29 -19z"/>
<path d="M6010 3134 c-36 -14 -141 -43 -233 -65 -93 -23 -166 -43 -164 -45 8
-8 173 30 385 89 30 8 61 22 70 31 20 19 22 20 -58 -10z"/>
<path d="M4258 3093 c7 -3 16 -2 19 1 4 3 -2 6 -13 5 -11 0 -14 -3 -6 -6z"/>
<path d="M4500 3030 c14 -4 45 -8 70 -8 l45 1 -45 8 c-25 4 -56 7 -70 7 l-25
0 25 -8z"/>
<path d="M4633 3013 c9 -2 25 -2 35 0 9 3 1 5 -18 5 -19 0 -27 -2 -17 -5z"/>
<path d="M5328 2993 c6 -2 18 -2 25 0 6 3 1 5 -13 5 -14 0 -19 -2 -12 -5z"/>
<path d="M5103 2983 c31 -2 83 -2 115 0 31 2 5 3 -58 3 -63 0 -89 -1 -57 -3z"/>
<path d="M4900 8113 c-298 -29 -463 -72 -695 -182 -383 -182 -703 -495 -885
-866 -131 -266 -187 -476 -197 -740 -8 -204 8 -348 57 -526 91 -330 216 -564
424 -791 297 -325 640 -515 1101 -610 135 -28 168 -31 325 -31 204 1 307 15
525 74 219 59 380 129 545 237 320 208 584 531 752 920 32 73 83 243 104 347
21 98 30 427 15 540 -25 187 -88 390 -178 569 -110 220 -327 496 -505 643
-200 165 -440 289 -688 357 -182 49 -514 78 -700 59z m448 -148 c152 -25 312
-71 452 -130 142 -59 371 -213 508 -339 220 -205 435 -585 508 -902 21 -95 31
-458 14 -562 -13 -83 -50 -233 -80 -322 -30 -90 -123 -281 -190 -389 -58 -94
-93 -138 -77 -97 23 60 28 174 22 526 l-7 375 31 66 c39 87 51 163 50 334 -1
244 -12 364 -42 427 -43 95 -122 169 -227 213 -41 18 -72 20 -335 20 l-290 0
-6 125 c-9 171 -39 244 -135 328 -84 75 -126 82 -480 82 -282 0 -307 -1 -359
-21 -103 -38 -197 -134 -226 -229 -6 -19 -13 -89 -15 -155 l-4 -120 -308 -6
c-287 -5 -311 -7 -364 -28 -84 -33 -159 -106 -205 -199 l-38 -76 -3 -251 c-4
-276 5 -349 53 -453 l27 -57 -7 -385 -7 -386 37 -107 c20 -59 35 -112 33 -119
-6 -18 -112 124 -173 231 -108 191 -177 376 -225 601 -32 149 -32 394 0 570
50 281 175 554 356 781 171 214 447 423 704 533 121 52 380 121 505 136 99 12
392 3 503 -15z m35 -400 c51 -21 107 -73 125 -115 8 -20 17 -82 20 -142 l5
-108 -24 0 c-13 0 -34 -3 -46 -6 -23 -6 -23 -5 -23 83 l0 89 -41 39 -40 40
-277 0 c-273 0 -278 0 -315 -23 -58 -37 -67 -56 -67 -144 l0 -78 -45 0 -45 0
0 98 c0 121 12 164 59 214 56 61 91 67 407 67 220 1 278 -2 307 -14z m-89
-267 c3 -7 7 -34 10 -60 l6 -48 -236 0 -236 0 6 23 c3 12 6 37 6 54 l0 33 198
3 c108 1 207 3 220 5 12 1 24 -4 26 -10z m984 -277 c67 -37 100 -72 129 -137
14 -31 18 -78 21 -241 6 -293 -12 -375 -103 -472 -27 -28 -74 -64 -108 -81
-50 -25 -72 -30 -132 -30 l-71 0 0 68 c1 82 -12 109 -66 145 -81 52 -232 61
-315 18 -67 -34 -97 -81 -101 -162 l-4 -67 -85 -7 c-46 -4 -87 -4 -91 0 -4 3
-8 39 -8 78 -2 88 -14 120 -62 170 -59 62 -124 90 -218 95 -80 4 -82 4 -140
-33 -126 -80 -154 -123 -154 -239 l0 -74 -87 3 -88 3 -6 69 c-3 37 -10 78 -17
89 -38 70 -142 110 -262 101 -86 -6 -138 -27 -185 -77 -28 -29 -30 -37 -30
-106 l0 -74 -76 0 c-67 0 -85 4 -146 35 -72 36 -104 70 -154 165 -23 44 -24
52 -27 322 -3 261 -2 279 17 316 41 81 105 133 186 153 17 4 545 6 1175 5
l1145 -1 63 -34z m-1133 -796 c51 -21 57 -47 53 -232 l-3 -163 -32 -32 c-29
-29 -40 -33 -102 -36 -130 -8 -142 14 -144 261 l-2 182 35 17 c43 22 147 24
195 3z m-707 -227 c2 -162 2 -167 -21 -194 -20 -23 -31 -27 -72 -26 -99 1
-113 32 -114 254 -1 147 -10 137 119 135 l85 -2 3 -167z m1432 -3 c0 -166 -1
-175 -22 -195 -16 -14 -35 -20 -69 -20 -107 0 -119 22 -119 226 0 126 2 144
18 153 9 6 56 11 105 11 l87 0 0 -175z m-2009 -211 c41 -11 88 -15 135 -12
l71 5 18 -56 c9 -31 23 -67 30 -80 10 -21 10 -33 -4 -70 -9 -26 -25 -54 -36
-63 -16 -14 -17 -19 -6 -27 10 -6 10 -10 1 -16 -6 -4 -18 1 -25 11 -8 11 -15
14 -15 7 0 -8 -19 0 -47 18 -55 34 -131 59 -181 59 l-35 0 6 83 c4 45 7 99 7
120 0 20 4 37 9 37 5 0 38 -7 72 -16z m2488 -120 c1 -80 1 -82 -25 -88 -34 -9
-42 -1 -15 14 19 10 21 20 22 113 2 121 16 89 18 -39z m-2246 81 c9 -18 9 -19
-6 -6 -10 7 -17 23 -16 35 0 14 2 16 6 6 3 -8 10 -24 16 -35z m1437 10 c14
-19 14 -19 -4 -5 -18 14 -19 13 -14 -34 4 -34 3 -44 -3 -33 -10 17 -105 51
-119 42 -5 -3 -11 1 -13 7 -3 7 -6 3 -6 -10 -1 -13 -7 -30 -15 -38 -13 -12
-14 -9 -10 23 10 66 8 65 84 62 39 -1 73 1 77 4 3 4 7 6 7 5 1 -2 8 -12 16
-23z m586 11 c8 -8 14 -21 14 -28 0 -19 -48 -53 -83 -60 -25 -5 -28 -3 -23 16
3 11 6 36 6 54 0 30 2 32 36 32 19 0 42 -6 50 -14z m-1365 -75 c15 -68 15 -69
-5 -62 -12 4 -25 17 -31 29 -5 12 -16 24 -24 27 -11 5 -12 3 -1 -10 7 -9 10
-18 6 -22 -3 -3 -6 -1 -6 5 0 7 -9 12 -20 12 -11 0 -20 5 -20 11 0 6 -9 8 -20
4 -16 -5 -20 -2 -20 14 0 12 -4 21 -10 21 -5 0 -10 9 -10 20 0 18 7 20 73 20
l74 0 14 -69z m459 -201 c-8 -5 -22 -10 -30 -10 -13 0 -13 1 0 10 8 5 22 10
30 10 13 0 13 -1 0 -10z m-67 -17 c-7 -2 -19 -2 -25 0 -7 3 -2 5 12 5 14 0 19
-2 13 -5z m1219 -53 c-4 -50 -28 -83 -56 -76 -18 4 -37 -10 -98 -72 -75 -76
-99 -111 -112 -165 -12 -50 -29 -19 -23 42 7 78 47 154 120 224 64 63 107 88
147 84 22 -2 25 -6 22 -37z m-2538 20 c28 -6 58 -27 107 -76 76 -76 116 -147
125 -227 l7 -55 -44 5 c-54 7 -63 13 -21 13 37 0 41 16 16 58 -20 35 -89 84
-118 86 -15 0 -22 6 -18 14 3 9 -8 6 -31 -7 -19 -11 -38 -17 -41 -14 -16 17
-3 -16 14 -35 11 -12 20 -25 20 -29 1 -12 46 -42 88 -59 31 -12 32 -13 7 -8
-97 19 -184 144 -201 289 l-7 55 29 0 c16 0 47 -5 68 -10z m103 -527 c-4 -3
-2 -12 4 -20 18 -21 4 -15 -16 7 -17 19 -17 20 0 20 10 0 15 -3 12 -7z m103
-84 c0 -5 18 -18 41 -30 39 -19 56 -20 296 -20 141 1 259 3 262 6 4 2 317 5
697 6 611 1 692 3 717 17 15 9 27 20 27 24 0 4 5 8 11 8 19 0 0 -18 -69 -63
-181 -119 -421 -208 -697 -258 -103 -18 -144 -20 -285 -16 -369 12 -635 87
-920 260 -134 82 -140 86 -106 80 14 -3 26 -9 26 -14z"/>
<path d="M5390 7456 c0 -2 8 -10 18 -17 15 -13 16 -12 3 4 -13 16 -21 21 -21
13z"/>
<path d="M3240 7759 c0 -5 5 -7 10 -4 6 3 10 8 10 11 0 2 -4 4 -10 4 -5 0 -10
-5 -10 -11z"/>
<path d="M3080 4929 c0 -5 5 -7 10 -4 6 3 10 8 10 11 0 2 -4 4 -10 4 -5 0 -10
-5 -10 -11z"/>
<path d="M6828 7843 c7 -3 16 -2 19 1 4 3 -2 6 -13 5 -11 0 -14 -3 -6 -6z"/>
<path d="M6977 4903 c-4 -3 -7 -11 -7 -17 0 -6 5 -5 12 2 6 6 9 14 7 17 -3 3
-9 2 -12 -2z"/>
<path d="M6430 3493 c5 -2 8 -9 4 -14 -3 -5 0 -9 6 -9 15 0 7 23 -8 26 -7 1
-8 0 -2 -3z"/>
<path d="M6470 3455 c-14 -8 -20 -14 -14 -15 5 0 19 7 30 15 24 18 16 19 -16
0z"/>
<path d="M6395 3440 c-4 -6 -12 -7 -18 -4 -7 4 -8 3 -4 -1 13 -15 34 -14 34 1
0 17 -4 18 -12 4z"/>
<path d="M6520 3385 c7 -8 20 -14 29 -14 13 1 13 2 -1 6 -10 2 -18 9 -18 14 0
5 -5 9 -11 9 -8 0 -8 -5 1 -15z"/>
<path d="M6480 3376 c0 -2 7 -6 15 -10 8 -3 15 -1 15 4 0 6 -7 10 -15 10 -8 0
-15 -2 -15 -4z"/>
<path d="M6500 3235 c7 -9 15 -13 17 -11 7 7 -7 26 -19 26 -6 0 -6 -6 2 -15z"/>
<path d="M6918 3023 c7 -3 16 -2 19 1 4 3 -2 6 -13 5 -11 0 -14 -3 -6 -6z"/>
<path d="M6915 2970 c-3 -5 -1 -10 4 -10 6 0 11 5 11 10 0 6 -2 10 -4 10 -3 0
-8 -4 -11 -10z"/>
<path d="M6940 2939 c0 -5 5 -7 10 -4 6 3 10 8 10 11 0 2 -4 4 -10 4 -5 0 -10
-5 -10 -11z"/>
<path d="M6970 2931 c0 -6 4 -13 10 -16 6 -3 7 1 4 9 -7 18 -14 21 -14 7z"/>
<path d="M7000 2909 c0 -5 5 -7 10 -4 6 3 10 8 10 11 0 2 -4 4 -10 4 -5 0 -10
-5 -10 -11z"/>
<path d="M6970 2891 c0 -6 4 -13 10 -16 6 -3 7 1 4 9 -7 18 -14 21 -14 7z"/>
<path d="M7074 2839 c-4 -7 -3 -9 4 -5 5 3 13 0 15 -6 4 -9 6 -10 6 -1 1 17
-16 25 -25 12z"/>
<path d="M7067 2809 c7 -7 15 -10 18 -7 3 3 -2 9 -12 12 -14 6 -15 5 -6 -5z"/>
<path d="M7039 2783 c-13 -17 -13 -17 5 -3 18 14 18 13 12 -10 -6 -22 -5 -23
5 -7 16 26 -3 44 -22 20z"/>
<path d="M7136 2693 c-6 -14 -5 -15 5 -6 7 7 10 15 7 18 -3 3 -9 -2 -12 -12z"/>
<path d="M7130 2610 c-9 -6 -10 -10 -3 -10 6 0 15 5 18 10 8 12 4 12 -15 0z"/>
<path d="M7220 2606 c0 -2 7 -7 16 -10 8 -3 12 -2 9 4 -6 10 -25 14 -25 6z"/>
<path d="M7325 2550 c-4 -6 -11 -8 -16 -5 -5 4 -9 1 -9 -4 0 -16 16 -13 30 4
7 8 10 15 7 15 -3 0 -9 -5 -12 -10z"/>
<path d="M7385 2470 c-4 -12 0 -26 9 -36 9 -8 16 -11 16 -5 0 5 -5 13 -10 16
-6 4 -8 15 -5 26 4 10 4 19 1 19 -2 0 -8 -9 -11 -20z"/>
<path d="M7461 2424 c0 -11 3 -14 6 -6 3 7 2 16 -1 19 -3 4 -6 -2 -5 -13z"/>
<path d="M7826 2237 c3 -10 9 -15 12 -12 3 3 0 11 -7 18 -10 9 -11 8 -5 -6z"/>
<path d="M7721 2224 c0 -11 3 -14 6 -6 3 7 2 16 -1 19 -3 4 -6 -2 -5 -13z"/>
<path d="M10178 10222 c12 -10 32 -31 42 -47 l20 -30 0 48 0 47 -42 0 -43 0
23 -18z"/>
<path d="M2 30 c-1 -29 1 -30 41 -30 l42 1 -35 29 c-19 16 -38 30 -41 30 -3 0
-6 -13 -7 -30z"/>
</g>
</svg>
